<svg width="256" height="256" xmlns="http://www.w3.org/2000/svg">
 <g>
  <title>background</title>
  <rect fill="#aad4ff" id="canvas_background" height="256" width="256" y="0" x="0"/>
  <rect fill="#ffffff" id="canvas_background" height="128" width="256" y="0" x="0"/>
 </g>
 <g>
  <title>Layer 1</title>
  <path transform="rotate(-0.6979314088821411 199.90675354004048,120.07621002197364) " id="svg_5" d="m214.190523,194.494579c0,0 -10.693007,-1.256523 -16.356006,-6.060149c-5.662999,-4.803685 -8.305712,-10.928368 -8.305712,-10.928368c0,0 2.971903,5.282816 7.1424,9.285525c2.542627,2.440299 5.530953,4.404869 8.562975,4.404869c0,0 -4.681184,-4.203115 -8.192525,-1.201024c0,0 2.529526,-2.762085 6.908903,-0.660469c4.379636,2.101557 6.569047,0.900533 6.569047,0.900533c0,0 -7.399368,-0.060016 -10.608569,-3.422613c-3.209238,-3.362597 -4.0021,-5.283696 -4.0021,-5.283696c0,0 3.322425,5.464155 5.889668,6.124683c2.567243,0.660528 6.984374,-0.120443 6.984374,-0.120443c0,0 -4.568034,0.180459 -6.002855,-0.840576c-1.434562,-1.020507 -7.097561,-3.062107 -8.116796,1.201024c0,0 1.132423,-4.503605 6.304662,-3.182549c5.172239,1.321056 5.663294,0.901003 5.663294,0.901003c0,0 -9.174339,-5.644672 -14.308825,-2.462064c-5.134522,3.182549 -4.794703,5.884619 -4.794703,5.884619c0,0 0.339856,-9.367248 12.874041,-7.686155c0,0 -5.851656,-1.381072 -8.003905,-4.143099c-2.151658,-2.762085 -2.302857,-4.563211 -2.302857,-4.563211c0,0 2.453798,5.944224 5.474342,6.00424c3.020286,0.060427 3.888618,-0.360037 3.888618,-0.360037c0,0 -5.889631,-2.161573 -8.683543,-1.681563c-2.793653,0.480539 -7.323934,2.0416 -9.702557,-4.803627c0,0 2.227424,6.545205 8.306007,4.2636c6.078288,-2.282016 9.891177,0.240005 9.891177,0.240005c0,0 -9.211797,-2.822101 -11.099624,-5.644144c-1.887568,-2.822101 -2.113942,-7.686213 -2.113942,-7.686213c0,0 0.792862,8.166224 4.681184,8.947253c3.888913,0.780501 9.778285,0.600043 11.326293,3.422555c0,0 -3.888618,-4.563621 -7.928434,-3.963109c-4.039521,0.600512 -10.269008,8.886768 -13.440234,6.725195c-3.171189,-2.161573 -4.606009,-0.360448 -4.606009,-0.360448c0,0 1.321633,-2.101557 3.586478,-1.141067c2.265436,0.961019 2.756195,2.402048 6.644813,-1.861083c3.888618,-4.263131 10.495419,-9.547237 14.686139,-4.984085c0,0 -19.581149,-8.625877 -21.695091,-26.158939c0,0 1.861587,11.690155 11.426046,16.893419c9.564755,5.203264 10.118104,4.803685 10.118104,4.803685c0,0 -14.748729,-2.48248 -21.645307,-23.618614c0,0 5.989975,16.41288 15.302928,18.574453c0,0 -7.852964,-4.323088 -13.944132,-17.533003c-6.090319,-13.210384 -6.342969,-17.614373 -6.342969,-17.614373c0,0 7.400475,21.136075 21.394908,24.8996c0,0 -10.961821,-4.984965 -18.814527,-20.896949c-7.852669,-15.911984 -5.398613,-19.034517 -5.398613,-19.034517c0,0 -1.698911,-5.704219 -0.415585,-6.965259c0,0 -2.529526,-4.563621 -1.812098,-8.286256c0,0 1.812098,14.110448 11.061907,23.357723c9.249772,9.246805 10.042634,10.387813 10.042634,10.387813c0,0 -9.589628,-10.447829 -12.609914,-15.491931c-3.020286,-5.043691 -6.418144,-8.946784 -8.38144,-19.754651c0,0 1.887863,10.687835 7.852964,18.013541c5.964843,7.325707 7.135536,7.205264 7.135536,7.205264c0,0 -12.232341,-9.967349 -15.139403,-26.479846c0,0 1.698911,12.189349 15.177157,23.838203c0,0 -13.515963,-12.669829 -15.177157,-26.180235c0,0 -0.301844,-1.981525 0.264349,-2.942075c0,0 -0.679675,-2.582096 -0.453006,-5.824661c0.226374,-3.242155 0.49076,-6.724725 0.49076,-6.724725c0,0 -0.603946,13.690395 7.777236,24.258256c0,0 -9.891472,-18.855408 -6.367289,-34.38647c0,0 -0.755699,8.566683 1.610339,12.489371c0,0 -2.013893,-6.884357 -1.056989,-14.971029c0,0 -0.25206,8.566741 2.26514,16.332507c2.517237,7.765765 10.571147,22.817168 10.571147,22.817168c0,0 -9.463303,-17.613904 -10.973594,-27.541243c-1.509995,-9.927339 -0.654801,-16.412059 -0.654801,-16.412059c0,0 -0.855194,9.286405 2.819339,18.574043c3.674533,9.287285 4.933281,10.327856 4.933281,10.327856c0,0 -10.118658,-16.733435 -6.293184,-35.307008c0,0 -0.251248,18.814048 3.92663,26.90031c4.178689,8.086613 5.43633,8.326677 5.43633,8.326677c0,0 -8.607814,-10.808336 -8.30597,-25.93976c0.302361,-15.131483 1.913807,-15.931989 1.913807,-15.931989c0,0 -3.574743,12.808576 2.163726,25.138784c5.738727,12.330208 4.581136,10.007771 4.581136,10.007771c0,0 -8.154513,-16.812517 -6.54362,-29.94288c1.610893,-13.130304 4.681184,-12.969851 4.681184,-12.969851c0,0 -3.372136,3.522171 -3.221232,11.608373c0.15094,8.086261 4.983582,23.778187 4.983582,23.778187c0,0 -5.386582,-21.535712 -3.926593,-28.181355c1.459436,-6.645173 4.530576,-8.646293 4.530576,-8.646293c0,0 -5.991119,5.444208 -2.51779,20.015541c0,0 -2.164243,-13.849557 3.624232,-20.334688c0,0 -4.127281,6.245125 -2.416044,17.853557c0,0 -0.503344,-14.251776 4.983287,-19.135013c0,0 -3.522781,4.404048 -3.573377,13.290757c0,0 0.755145,-8.967611 4.932764,-14.011301c0,0 -3.171484,7.685744 -2.969726,18.734085c0,0 2.366038,-10.887008 3.524183,-18.893659c0,0 0.200688,4.323557 -0.654801,9.686864c-0.855489,5.364128 -1.258194,5.844197 -1.258194,5.844197c0,0 3.070292,-7.205264 3.22149,-14.250485c0,0 0.15094,6.885648 -1.157592,12.650293c0,0 2.492363,-3.18736 2.806238,-10.249947c0.004908,-0.105248 0.008746,-0.211376 0.012548,-0.318325c0,0 0.70429,10.326917 -1.862952,19.054112c-2.567243,8.727605 -3.775431,9.527701 -3.775431,9.527701c0,0 5.68898,-8.567152 6.544469,-20.415589c0,0 0.100602,6.644293 -1.409393,12.408528c-1.510032,5.764587 -3.121183,10.168635 -3.121183,10.168635c0,0 7.600868,-10.969611 6.342674,-30.663366c0,0 1.459436,10.96744 0.15094,19.294117c-1.308532,8.326677 -7.752657,21.136133 -7.752657,21.136133c0,0 10.018056,-14.091323 10.470803,-36.428011c0,0 1.208188,13.209915 -3.397858,25.218806c0,0 6.795716,-12.248955 6.644813,-23.897808c0,0 1.51029,5.884208 0.226374,13.930459c-1.283363,8.046192 -7.399368,26.90031 -13.742337,31.463931c0,0 17.215665,-14.771445 16.083206,-40.110224c0,0 1.887568,11.528411 -0.453006,22.697195c-2.340611,11.168315 -11.250822,28.221307 -11.250822,28.221307c0,0 12.760818,-18.734085 14.648681,-39.150086c0,0 0.603946,-6.244245 -0.151199,-9.967349c0,0 3.096014,2.161573 3.322388,11.408848c0.226374,9.246805 -2.793617,21.736587 -4.907853,30.502912c-2.114237,8.766736 -6.644518,20.415589 -6.644518,20.415589c0,0 14.723856,-35.787078 12.60936,-53.32055c0,0 3.775689,7.565712 3.322388,17.413499c-0.452748,9.847259 -3.624232,37.228107 -12.458457,49.597446c0,0 9.5139,-12.008891 12.156613,-33.86551c0,0 1.359092,-11.648853 1.132459,-18.014011c0,0 1.887568,13.450389 1.208151,23.538182c-0.679417,10.087792 -7.777236,32.664955 -7.777236,32.664955c0,0 7.777236,-18.854528 8.305712,-30.623414c0,0 0.830615,7.085232 0.226669,13.570421c-0.603946,6.48472 -4.077275,18.614053 -7.022386,25.699286c0,0 6.19177,-14.170464 7.475391,-20.415589c1.283658,-6.244715 1.056989,-9.847317 1.056989,-9.847317c0,0 1.51029,19.45504 -0.906049,28.581814c-2.416339,9.126773 -10.042376,22.697195 -10.570852,29.061883c0,0 3.548762,-14.770976 11.250527,-17.052992c7.701765,-2.281605 12.081143,1.201024 12.081143,1.201024c0,0 -11.70357,-6.004651 -17.97081,5.284107c0,0 -3.171189,6.124683 -3.246918,11.648853c0,0 8.155066,-9.126773 9.43843,-21.616613c1.28388,-12.489371 7.249018,-14.410939 7.249018,-14.410939c0,0 -6.644813,3.963109 -6.569343,14.771445c0.07547,10.808277 -7.550862,23.537712 -9.362959,23.177675c0,0 6.19177,-2.762085 8.38144,-11.048341c0,0 -1.43482,8.406229 -4.530281,13.269931c-3.096014,4.863643 -2.076779,6.9652 -2.076779,6.9652c0,0 1.057248,-5.22368 4.153003,-9.607312c3.096014,-4.383163 7.173252,-11.948875 7.211006,-17.052992c0.037717,-5.103648 3.397858,-10.207765 3.397858,-10.207765c0,0 -2.642713,5.344123 -2.756195,9.1872c-0.113187,3.842667 0.264386,9.847317 -4.152708,14.891419c-4.417389,5.043691 -6.26724,14.110507 -6.19177,18.073557c0,0 3.08343,-14.150869 12.144582,-16.952555c0,0 -8.658706,2.721664 -11.728997,18.254075c0,0 5.738174,-15.531531 13.389896,-19.614672c0,0 -8.154771,5.524171 -12.081143,19.054581c0,0 2.315479,-9.608603 9.563943,-10.008181c0,0 -6.040571,1.280576 -8.506658,10.327797c0,0 1.107254,-3.841787 5.235125,-5.203264c4.127834,-1.361477 7.600609,-6.085141 6.74512,-10.569152c0,0 1.056989,6.243835 -4.328781,10.407819c-5.386324,4.163984 -7.649287,14.134677 -7.649287,14.134677c0,0 4.386094,6.604869 7.932309,12.170752c-0.27996,3.116901 -1.246754,3.974549 -2.146381,4.304373c-0.321662,0.11792 -7.83108,-13.313285 -8.258953,-13.580864z" stroke-opacity="null" stroke-width="1.5" stroke="#000" fill="#aad4ff"/>
  <text stroke="#000" transform="matrix(0.6030091047286987,0,0,0.5185185074806213,114.68694785423577,104.69965517800301) " xml:space="preserve" text-anchor="start" font-family="Helvetica, Arial, sans-serif" font-size="24" id="svg_6" y="231.73884" x="88.582512" fill-opacity="null" stroke-opacity="null" stroke-width="0" fill="#000000">Ashtar Eve</text>
 </g>
</svg>